<mxfile host="app.diagrams.net" modified="2023-10-17T09:28:55.128Z" agent="Mozilla/5.0 (Macintosh; Intel Mac OS X 10_15_7) AppleWebKit/537.36 (KHTML, like Gecko) Chrome/118.0.0.0 Safari/537.36" etag="vBTAulglVMCpnDbhMRWQ" version="22.0.4" type="github">
  <diagram name="Page-1" id="1t-hTWWhcxCyTro-79QI">
    <mxGraphModel dx="1434" dy="790" grid="1" gridSize="10" guides="1" tooltips="1" connect="1" arrows="1" fold="1" page="1" pageScale="1" pageWidth="850" pageHeight="1100" math="0" shadow="0">
      <root>
        <mxCell id="0" />
        <mxCell id="1" parent="0" />
        <mxCell id="8E7zthhxuqswj6sg-R0r-1" value="SWIB" style="rounded=0;whiteSpace=wrap;html=1;fillColor=#ffcccc;strokeColor=#36393d;" parent="1" vertex="1">
          <mxGeometry x="200" y="280" width="240" height="40" as="geometry" />
        </mxCell>
        <mxCell id="8E7zthhxuqswj6sg-R0r-2" value="Launchhost" style="rounded=0;whiteSpace=wrap;html=1;fillColor=#fff2cc;strokeColor=#d6b656;" parent="1" vertex="1">
          <mxGeometry x="120" y="320" width="80" height="40" as="geometry" />
        </mxCell>
        <mxCell id="8E7zthhxuqswj6sg-R0r-3" value="LaunchOP" style="rounded=0;whiteSpace=wrap;html=1;fillColor=#fff2cc;strokeColor=#d6b656;" parent="1" vertex="1">
          <mxGeometry x="440" y="320" width="80" height="40" as="geometry" />
        </mxCell>
        <mxCell id="8E7zthhxuqswj6sg-R0r-4" value="Calculate" style="rounded=0;whiteSpace=wrap;html=1;fillColor=#d5e8d4;strokeColor=#82b366;" parent="1" vertex="1">
          <mxGeometry x="40" y="360" width="80" height="40" as="geometry" />
        </mxCell>
        <mxCell id="8E7zthhxuqswj6sg-R0r-29" value="SWIB" style="rounded=0;whiteSpace=wrap;html=1;fillColor=#ffcccc;strokeColor=#36393d;" parent="1" vertex="1">
          <mxGeometry x="680" y="280" width="240" height="40" as="geometry" />
        </mxCell>
        <mxCell id="8E7zthhxuqswj6sg-R0r-30" value="Launchhost" style="rounded=0;whiteSpace=wrap;html=1;fillColor=#fff2cc;strokeColor=#d6b656;" parent="1" vertex="1">
          <mxGeometry x="600" y="320" width="80" height="40" as="geometry" />
        </mxCell>
        <mxCell id="8E7zthhxuqswj6sg-R0r-31" value="LaunchOP" style="rounded=0;whiteSpace=wrap;html=1;fillColor=#fff2cc;strokeColor=#d6b656;" parent="1" vertex="1">
          <mxGeometry x="920" y="320" width="80" height="40" as="geometry" />
        </mxCell>
        <mxCell id="8E7zthhxuqswj6sg-R0r-32" value="Calculate" style="rounded=0;whiteSpace=wrap;html=1;fillColor=#d5e8d4;strokeColor=#82b366;" parent="1" vertex="1">
          <mxGeometry x="520" y="360" width="80" height="40" as="geometry" />
        </mxCell>
        <mxCell id="8E7zthhxuqswj6sg-R0r-41" value="SWIB" style="rounded=0;whiteSpace=wrap;html=1;fillColor=#ffcccc;strokeColor=#0000CC;dashed=1;dashPattern=8 8;strokeWidth=2;fontColor=#FF0000;" parent="1" vertex="1">
          <mxGeometry x="440" y="280" width="240" height="40" as="geometry" />
        </mxCell>
        <mxCell id="8E7zthhxuqswj6sg-R0r-42" value="Launchhost" style="rounded=0;whiteSpace=wrap;html=1;fillColor=#fff2cc;strokeColor=#0000CC;dashed=1;dashPattern=8 8;strokeWidth=2;fontColor=#FF0000;" parent="1" vertex="1">
          <mxGeometry x="360" y="320" width="80" height="40" as="geometry" />
        </mxCell>
        <mxCell id="8E7zthhxuqswj6sg-R0r-43" value="LaunchOP" style="rounded=0;whiteSpace=wrap;html=1;fillColor=#fff2cc;strokeColor=#0000CC;dashed=1;dashPattern=8 8;strokeWidth=2;fontColor=#FF0000;" parent="1" vertex="1">
          <mxGeometry x="680" y="320" width="80" height="40" as="geometry" />
        </mxCell>
        <mxCell id="8E7zthhxuqswj6sg-R0r-44" value="Calculate" style="rounded=0;whiteSpace=wrap;html=1;fillColor=#d5e8d4;strokeColor=#0000CC;dashed=1;dashPattern=8 8;strokeWidth=2;fontColor=#FF0000;" parent="1" vertex="1">
          <mxGeometry x="280" y="360" width="80" height="40" as="geometry" />
        </mxCell>
        <mxCell id="8E7zthhxuqswj6sg-R0r-45" value="SWIB" style="rounded=0;whiteSpace=wrap;html=1;fillColor=#ffcccc;strokeColor=#0000CC;dashed=1;dashPattern=8 8;strokeWidth=2;fontColor=#FF0000;" parent="1" vertex="1">
          <mxGeometry x="920" y="280" width="240" height="40" as="geometry" />
        </mxCell>
        <mxCell id="8E7zthhxuqswj6sg-R0r-46" value="Launchhost" style="rounded=0;whiteSpace=wrap;html=1;fillColor=#fff2cc;strokeColor=#0000CC;dashed=1;dashPattern=8 8;strokeWidth=2;fontColor=#FF0000;" parent="1" vertex="1">
          <mxGeometry x="840" y="320" width="80" height="40" as="geometry" />
        </mxCell>
        <mxCell id="8E7zthhxuqswj6sg-R0r-47" value="LaunchOP" style="rounded=0;whiteSpace=wrap;html=1;fillColor=#fff2cc;strokeColor=#0000CC;dashed=1;dashPattern=8 8;strokeWidth=2;fontColor=#FF0000;" parent="1" vertex="1">
          <mxGeometry x="1160" y="320" width="80" height="40" as="geometry" />
        </mxCell>
        <mxCell id="8E7zthhxuqswj6sg-R0r-48" value="Calculate" style="rounded=0;whiteSpace=wrap;html=1;fillColor=#d5e8d4;strokeColor=#0000CC;dashed=1;dashPattern=8 8;strokeWidth=2;fontColor=#FF0000;" parent="1" vertex="1">
          <mxGeometry x="760" y="360" width="80" height="40" as="geometry" />
        </mxCell>
        <mxCell id="8E7zthhxuqswj6sg-R0r-57" value="SWIB" style="rounded=0;whiteSpace=wrap;html=1;fillColor=#ffcccc;strokeColor=#36393d;" parent="1" vertex="1">
          <mxGeometry x="200" y="120" width="240" height="40" as="geometry" />
        </mxCell>
        <mxCell id="8E7zthhxuqswj6sg-R0r-58" value="Launchhost" style="rounded=0;whiteSpace=wrap;html=1;fillColor=#fff2cc;strokeColor=#d6b656;" parent="1" vertex="1">
          <mxGeometry x="120" y="160" width="80" height="40" as="geometry" />
        </mxCell>
        <mxCell id="8E7zthhxuqswj6sg-R0r-59" value="LaunchOP" style="rounded=0;whiteSpace=wrap;html=1;fillColor=#fff2cc;strokeColor=#d6b656;" parent="1" vertex="1">
          <mxGeometry x="440" y="160" width="80" height="40" as="geometry" />
        </mxCell>
        <mxCell id="8E7zthhxuqswj6sg-R0r-60" value="Calculate" style="rounded=0;whiteSpace=wrap;html=1;fillColor=#d5e8d4;strokeColor=#82b366;" parent="1" vertex="1">
          <mxGeometry x="40" y="200" width="80" height="40" as="geometry" />
        </mxCell>
        <mxCell id="8E7zthhxuqswj6sg-R0r-61" value="SWIB" style="rounded=0;whiteSpace=wrap;html=1;fillColor=#ffcccc;strokeColor=#36393d;" parent="1" vertex="1">
          <mxGeometry x="680" y="120" width="240" height="40" as="geometry" />
        </mxCell>
        <mxCell id="8E7zthhxuqswj6sg-R0r-62" value="Launchhost" style="rounded=0;whiteSpace=wrap;html=1;fillColor=#fff2cc;strokeColor=#d6b656;" parent="1" vertex="1">
          <mxGeometry x="600" y="160" width="80" height="40" as="geometry" />
        </mxCell>
        <mxCell id="8E7zthhxuqswj6sg-R0r-63" value="LaunchOP" style="rounded=0;whiteSpace=wrap;html=1;fillColor=#fff2cc;strokeColor=#d6b656;" parent="1" vertex="1">
          <mxGeometry x="920" y="160" width="80" height="40" as="geometry" />
        </mxCell>
        <mxCell id="8E7zthhxuqswj6sg-R0r-64" value="Calculate" style="rounded=0;whiteSpace=wrap;html=1;fillColor=#d5e8d4;strokeColor=#82b366;" parent="1" vertex="1">
          <mxGeometry x="520" y="200" width="80" height="40" as="geometry" />
        </mxCell>
        <mxCell id="8E7zthhxuqswj6sg-R0r-66" value="1 device" style="text;html=1;strokeColor=none;fillColor=none;align=center;verticalAlign=middle;whiteSpace=wrap;rounded=0;" parent="1" vertex="1">
          <mxGeometry x="1040" y="170" width="60" height="30" as="geometry" />
        </mxCell>
        <mxCell id="8E7zthhxuqswj6sg-R0r-67" value="2 device" style="text;html=1;strokeColor=none;fillColor=none;align=center;verticalAlign=middle;whiteSpace=wrap;rounded=0;" parent="1" vertex="1">
          <mxGeometry x="1275" y="330" width="60" height="30" as="geometry" />
        </mxCell>
      </root>
    </mxGraphModel>
  </diagram>
</mxfile>
